<mxfile host="app.diagrams.net" modified="2022-01-26T15:25:10.007Z" agent="5.0 (Macintosh; Intel Mac OS X 10_15_7) AppleWebKit/605.1.15 (KHTML, like Gecko) Version/14.1.1 Safari/605.1.15" etag="4-04_fvSN1yCKgdPcuPx" version="16.4.5" type="github">
  <diagram id="ta2pAvN_0TowIcE2f6iy" name="Page-1">
    <mxGraphModel dx="1325" dy="1616" grid="1" gridSize="10" guides="1" tooltips="1" connect="1" arrows="1" fold="1" page="1" pageScale="1" pageWidth="827" pageHeight="1169" math="0" shadow="0">
      <root>
        <mxCell id="0" />
        <mxCell id="1" parent="0" />
        <mxCell id="h0ajp-BV4zZEb3fyEto1-27" value="" style="rounded=0;whiteSpace=wrap;html=1;fontSize=15;" vertex="1" parent="1">
          <mxGeometry x="-130" y="-30" width="810" height="530" as="geometry" />
        </mxCell>
        <mxCell id="h0ajp-BV4zZEb3fyEto1-2" value="" style="rounded=1;whiteSpace=wrap;html=1;" vertex="1" parent="1">
          <mxGeometry x="100" y="10" width="140" height="430" as="geometry" />
        </mxCell>
        <mxCell id="h0ajp-BV4zZEb3fyEto1-3" value="" style="endArrow=classic;html=1;rounded=0;entryX=0.148;entryY=0.075;entryDx=0;entryDy=0;entryPerimeter=0;" edge="1" parent="1" target="h0ajp-BV4zZEb3fyEto1-27">
          <mxGeometry width="50" height="50" relative="1" as="geometry">
            <mxPoint x="-10" y="440" as="sourcePoint" />
            <mxPoint x="-10" y="40" as="targetPoint" />
          </mxGeometry>
        </mxCell>
        <mxCell id="h0ajp-BV4zZEb3fyEto1-4" value="系统区" style="rounded=1;whiteSpace=wrap;html=1;fillColor=#e51400;strokeColor=#B20000;fontColor=#ffffff;fontSize=15;" vertex="1" parent="1">
          <mxGeometry x="110" y="20" width="120" height="60" as="geometry" />
        </mxCell>
        <mxCell id="h0ajp-BV4zZEb3fyEto1-19" style="edgeStyle=orthogonalEdgeStyle;rounded=0;orthogonalLoop=1;jettySize=auto;html=1;exitX=1;exitY=0.5;exitDx=0;exitDy=0;fontSize=15;entryX=0;entryY=0.5;entryDx=0;entryDy=0;" edge="1" parent="1" source="h0ajp-BV4zZEb3fyEto1-5" target="h0ajp-BV4zZEb3fyEto1-21">
          <mxGeometry relative="1" as="geometry">
            <mxPoint x="360" y="250" as="targetPoint" />
          </mxGeometry>
        </mxCell>
        <mxCell id="h0ajp-BV4zZEb3fyEto1-5" value="用户可操作区" style="rounded=1;whiteSpace=wrap;html=1;fillColor=#b1ddf0;strokeColor=#10739e;fontSize=15;" vertex="1" parent="1">
          <mxGeometry x="110" y="270" width="120" height="100" as="geometry" />
        </mxCell>
        <mxCell id="h0ajp-BV4zZEb3fyEto1-6" value="Low" style="text;html=1;strokeColor=none;fillColor=none;align=center;verticalAlign=middle;whiteSpace=wrap;rounded=0;fontSize=15;" vertex="1" parent="1">
          <mxGeometry x="-80" y="410" width="60" height="30" as="geometry" />
        </mxCell>
        <mxCell id="h0ajp-BV4zZEb3fyEto1-10" value="High" style="text;html=1;strokeColor=none;fillColor=none;align=center;verticalAlign=middle;whiteSpace=wrap;rounded=0;fontSize=15;" vertex="1" parent="1">
          <mxGeometry x="-80" y="10" width="60" height="30" as="geometry" />
        </mxCell>
        <mxCell id="h0ajp-BV4zZEb3fyEto1-11" value="0x00000...0" style="text;html=1;strokeColor=none;fillColor=none;align=center;verticalAlign=middle;whiteSpace=wrap;rounded=0;fontSize=15;" vertex="1" parent="1">
          <mxGeometry y="420" width="90" height="30" as="geometry" />
        </mxCell>
        <mxCell id="h0ajp-BV4zZEb3fyEto1-12" value="0x00000001...0" style="text;html=1;strokeColor=none;fillColor=none;align=center;verticalAlign=middle;whiteSpace=wrap;rounded=0;fontSize=15;" vertex="1" parent="1">
          <mxGeometry y="350" width="90" height="30" as="geometry" />
        </mxCell>
        <mxCell id="h0ajp-BV4zZEb3fyEto1-13" value="0x00007F...F" style="text;html=1;strokeColor=none;fillColor=none;align=center;verticalAlign=middle;whiteSpace=wrap;rounded=0;fontSize=15;" vertex="1" parent="1">
          <mxGeometry y="260" width="90" height="30" as="geometry" />
        </mxCell>
        <mxCell id="h0ajp-BV4zZEb3fyEto1-14" value="0xFFFF8...0" style="text;html=1;strokeColor=none;fillColor=none;align=center;verticalAlign=middle;whiteSpace=wrap;rounded=0;fontSize=15;" vertex="1" parent="1">
          <mxGeometry y="60" width="90" height="30" as="geometry" />
        </mxCell>
        <mxCell id="h0ajp-BV4zZEb3fyEto1-15" value="0xFFFF...F" style="text;html=1;strokeColor=none;fillColor=none;align=center;verticalAlign=middle;whiteSpace=wrap;rounded=0;fontSize=15;" vertex="1" parent="1">
          <mxGeometry y="10" width="90" height="30" as="geometry" />
        </mxCell>
        <mxCell id="h0ajp-BV4zZEb3fyEto1-16" value="High" style="text;html=1;strokeColor=none;fillColor=none;align=center;verticalAlign=middle;whiteSpace=wrap;rounded=0;fontSize=15;" vertex="1" parent="1">
          <mxGeometry x="570" y="10" width="60" height="30" as="geometry" />
        </mxCell>
        <mxCell id="h0ajp-BV4zZEb3fyEto1-17" value="" style="endArrow=classic;html=1;rounded=0;entryX=0.852;entryY=0.075;entryDx=0;entryDy=0;entryPerimeter=0;" edge="1" parent="1" target="h0ajp-BV4zZEb3fyEto1-27">
          <mxGeometry width="50" height="50" relative="1" as="geometry">
            <mxPoint x="560" y="440" as="sourcePoint" />
            <mxPoint x="560" y="40" as="targetPoint" />
          </mxGeometry>
        </mxCell>
        <mxCell id="h0ajp-BV4zZEb3fyEto1-18" value="Low" style="text;html=1;strokeColor=none;fillColor=none;align=center;verticalAlign=middle;whiteSpace=wrap;rounded=0;fontSize=15;" vertex="1" parent="1">
          <mxGeometry x="570" y="410" width="60" height="30" as="geometry" />
        </mxCell>
        <mxCell id="h0ajp-BV4zZEb3fyEto1-21" value="" style="rounded=1;whiteSpace=wrap;html=1;" vertex="1" parent="1">
          <mxGeometry x="350" y="10" width="190" height="430" as="geometry" />
        </mxCell>
        <mxCell id="h0ajp-BV4zZEb3fyEto1-22" value="Stack&lt;br&gt;局部变量 &amp;amp; 调用上下文" style="rounded=1;whiteSpace=wrap;html=1;fontSize=15;fillColor=#fad7ac;strokeColor=#b46504;" vertex="1" parent="1">
          <mxGeometry x="360" y="20" width="170" height="60" as="geometry" />
        </mxCell>
        <mxCell id="h0ajp-BV4zZEb3fyEto1-23" value="Heap&lt;br&gt;new &amp;amp; malloc" style="rounded=1;whiteSpace=wrap;html=1;fontSize=15;fillColor=#fad9d5;strokeColor=#ae4132;" vertex="1" parent="1">
          <mxGeometry x="360" y="160" width="170" height="60" as="geometry" />
        </mxCell>
        <mxCell id="h0ajp-BV4zZEb3fyEto1-24" value="全局区&lt;br&gt;（静态区）" style="rounded=1;whiteSpace=wrap;html=1;fontSize=15;fillColor=#b0e3e6;strokeColor=#0e8088;" vertex="1" parent="1">
          <mxGeometry x="360" y="230" width="170" height="60" as="geometry" />
        </mxCell>
        <mxCell id="h0ajp-BV4zZEb3fyEto1-25" value="常量区&lt;br&gt;字符串 &amp;amp; 常量" style="rounded=1;whiteSpace=wrap;html=1;fontSize=15;fillColor=#d0cee2;strokeColor=#56517e;" vertex="1" parent="1">
          <mxGeometry x="360" y="300" width="170" height="60" as="geometry" />
        </mxCell>
        <mxCell id="h0ajp-BV4zZEb3fyEto1-26" value="__text（指令）" style="rounded=1;whiteSpace=wrap;html=1;fontSize=15;fillColor=#bac8d3;strokeColor=#23445d;" vertex="1" parent="1">
          <mxGeometry x="360" y="370" width="170" height="60" as="geometry" />
        </mxCell>
        <mxCell id="h0ajp-BV4zZEb3fyEto1-28" value="" style="endArrow=classic;html=1;rounded=0;fontSize=15;exitX=0.118;exitY=0.833;exitDx=0;exitDy=0;exitPerimeter=0;" edge="1" parent="1" source="h0ajp-BV4zZEb3fyEto1-22">
          <mxGeometry width="50" height="50" relative="1" as="geometry">
            <mxPoint x="380" y="100" as="sourcePoint" />
            <mxPoint x="380" y="100" as="targetPoint" />
          </mxGeometry>
        </mxCell>
        <mxCell id="h0ajp-BV4zZEb3fyEto1-32" value="" style="endArrow=classic;html=1;rounded=0;fontSize=15;exitX=0.118;exitY=0.333;exitDx=0;exitDy=0;exitPerimeter=0;" edge="1" parent="1" source="h0ajp-BV4zZEb3fyEto1-23">
          <mxGeometry width="50" height="50" relative="1" as="geometry">
            <mxPoint x="390" y="110" as="sourcePoint" />
            <mxPoint x="380" y="140" as="targetPoint" />
          </mxGeometry>
        </mxCell>
        <mxCell id="h0ajp-BV4zZEb3fyEto1-33" value="溢出" style="text;html=1;strokeColor=none;fillColor=none;align=center;verticalAlign=middle;whiteSpace=wrap;rounded=0;fontSize=15;" vertex="1" parent="1">
          <mxGeometry x="352" y="104" width="60" height="30" as="geometry" />
        </mxCell>
      </root>
    </mxGraphModel>
  </diagram>
</mxfile>
